<?xml version="1.0" encoding="utf-8"?>
<!-- Generator: Adobe Illustrator 22.1.0, SVG Export Plug-In . SVG Version: 6.00 Build 0)  -->
<svg version="1.1" id="Layer_2_1_" xmlns="http://www.w3.org/2000/svg" xmlns:xlink="http://www.w3.org/1999/xlink" x="0px" y="0px"
	 viewBox="0 0 235 45.5" style="enable-background:new 0 0 235 45.5;" xml:space="preserve">
<style type="text/css">
	.st0{fill:#F1F1F8;}
	.st1{fill:none;stroke:#F1F1F8;stroke-width:2;stroke-miterlimit:10;}
	.st2{fill:none;stroke:#F1F1F8;stroke-width:2.5;stroke-miterlimit:10;}
	.st3{fill:none;stroke:#F1F1F8;stroke-miterlimit:10;}
</style>
<g>
	<path class="st0" d="M97.5,13.3h9.1c2.3,0,4.3,0.5,6.1,1.4s3.2,2.2,4.1,3.8c1,1.6,1.5,3.5,1.5,5.7c0,2.1-0.5,4-1.5,5.7
		c-1,1.6-2.4,2.9-4.1,3.8c-1.8,0.9-3.8,1.4-6.1,1.4h-9.1V13.3z M106.5,32.3c1.8,0,3.3-0.3,4.6-1c1.3-0.7,2.4-1.6,3.1-2.9
		c0.7-1.2,1.1-2.7,1.1-4.3c0-1.6-0.4-3-1.1-4.3s-1.8-2.2-3.1-2.9c-1.3-0.7-2.9-1-4.6-1h-5.9v16.3H106.5z"/>
	<path class="st0" d="M133.9,20.1c1.2,1.1,1.8,2.8,1.8,5V35h-2.8v-2.2c-0.5,0.8-1.2,1.3-2.1,1.8c-0.9,0.4-2,0.6-3.3,0.6
		c-1.8,0-3.3-0.4-4.4-1.3c-1.1-0.9-1.7-2.1-1.7-3.5c0-1.4,0.5-2.6,1.6-3.5c1.1-0.9,2.7-1.3,5-1.3h4.7v-0.6c0-1.3-0.4-2.3-1.1-2.9
		c-0.7-0.7-1.8-1-3.3-1c-1,0-1.9,0.2-2.9,0.5c-0.9,0.3-1.7,0.7-2.4,1.3l-1.2-2.2c0.8-0.7,1.9-1.2,3-1.6c1.2-0.4,2.4-0.5,3.8-0.5
		C130.9,18.4,132.7,18.9,133.9,20.1z M130.9,32.1c0.8-0.5,1.4-1.2,1.8-2.2v-2.3h-4.6c-2.5,0-3.8,0.8-3.8,2.5c0,0.8,0.3,1.5,1,2
		c0.6,0.5,1.5,0.7,2.7,0.7S130.1,32.6,130.9,32.1z"/>
	<path class="st0" d="M150.4,34c-0.4,0.4-1,0.7-1.6,0.9c-0.6,0.2-1.3,0.3-2,0.3c-1.7,0-2.9-0.4-3.8-1.3c-0.9-0.9-1.4-2.2-1.4-3.8v-9
		h-2.8v-2.4h2.8v-3.6h3v3.6h4.7V21h-4.7v8.9c0,0.9,0.2,1.6,0.7,2c0.4,0.5,1.1,0.7,1.9,0.7c0.9,0,1.7-0.3,2.3-0.8L150.4,34z"/>
	<path class="st0" d="M165.2,20.1c1.2,1.1,1.8,2.8,1.8,5V35h-2.8v-2.2c-0.5,0.8-1.2,1.3-2.1,1.8c-0.9,0.4-2,0.6-3.3,0.6
		c-1.8,0-3.3-0.4-4.4-1.3c-1.1-0.9-1.7-2.1-1.7-3.5c0-1.4,0.5-2.6,1.6-3.5c1.1-0.9,2.7-1.3,5-1.3h4.7v-0.6c0-1.3-0.4-2.3-1.1-2.9
		c-0.7-0.7-1.8-1-3.3-1c-1,0-1.9,0.2-2.9,0.5c-0.9,0.3-1.7,0.7-2.4,1.3l-1.2-2.2c0.8-0.7,1.9-1.2,3-1.6c1.2-0.4,2.4-0.5,3.8-0.5
		C162.3,18.4,164,18.9,165.2,20.1z M162.3,32.1c0.8-0.5,1.4-1.2,1.8-2.2v-2.3h-4.6c-2.5,0-3.8,0.8-3.8,2.5c0,0.8,0.3,1.5,1,2
		c0.6,0.5,1.5,0.7,2.7,0.7S161.5,32.6,162.3,32.1z"/>
	<path class="st0" d="M172.6,12h3v23h-3V12z"/>
	<path class="st0" d="M195.8,18.5l-8,18.1c-0.7,1.7-1.5,2.9-2.5,3.5c-0.9,0.7-2.1,1-3.4,1c-0.8,0-1.6-0.1-2.3-0.4
		c-0.8-0.3-1.4-0.6-1.9-1.1l1.3-2.2c0.8,0.8,1.8,1.2,2.9,1.2c0.7,0,1.3-0.2,1.8-0.6c0.5-0.4,0.9-1,1.3-2l0.5-1.1l-7.3-16.4h3.1
		l5.7,13.1l5.7-13.1H195.8z"/>
	<path class="st0" d="M208.3,34c-0.4,0.4-1,0.7-1.6,0.9c-0.6,0.2-1.3,0.3-2,0.3c-1.7,0-2.9-0.4-3.8-1.3c-0.9-0.9-1.4-2.2-1.4-3.8v-9
		h-2.8v-2.4h2.8v-3.6h3v3.6h4.7V21h-4.7v8.9c0,0.9,0.2,1.6,0.7,2c0.4,0.5,1.1,0.7,1.9,0.7c0.9,0,1.7-0.3,2.3-0.8L208.3,34z"/>
	<path class="st0" d="M211.9,14.8c-0.4-0.4-0.6-0.8-0.6-1.4s0.2-1,0.6-1.4c0.4-0.4,0.9-0.6,1.4-0.6c0.6,0,1.1,0.2,1.4,0.5
		c0.4,0.4,0.6,0.8,0.6,1.3c0,0.6-0.2,1-0.6,1.4c-0.4,0.4-0.9,0.6-1.4,0.6C212.8,15.4,212.3,15.2,211.9,14.8z M211.9,18.5h3V35h-3
		V18.5z"/>
	<path class="st0" d="M223.2,34.1c-1.3-0.7-2.3-1.7-3.1-3c-0.7-1.3-1.1-2.7-1.1-4.3s0.4-3.1,1.1-4.3c0.7-1.3,1.8-2.3,3.1-3
		c1.3-0.7,2.8-1.1,4.5-1.1c1.5,0,2.8,0.3,4,0.9c1.2,0.6,2.1,1.5,2.7,2.6l-2.3,1.5c-0.5-0.8-1.2-1.4-1.9-1.8s-1.6-0.6-2.5-0.6
		c-1.1,0-2,0.2-2.9,0.7c-0.9,0.5-1.5,1.2-2,2c-0.5,0.9-0.7,1.9-0.7,3c0,1.2,0.2,2.2,0.7,3.1c0.5,0.9,1.2,1.6,2,2
		c0.9,0.5,1.8,0.7,2.9,0.7c0.9,0,1.8-0.2,2.5-0.6c0.8-0.4,1.4-1,1.9-1.8l2.3,1.4c-0.6,1.1-1.5,2-2.7,2.6c-1.2,0.6-2.5,0.9-4,0.9
		C226,35.1,224.5,34.8,223.2,34.1z"/>
</g>
<title>logo</title>
<g>
	<circle class="st0" cx="19" cy="336.3" r="4.1"/>
	<circle class="st0" cx="32.5" cy="337.1" r="4.1"/>
	<circle class="st0" cx="42.7" cy="345.3" r="4.1"/>
	<circle class="st0" cx="39.6" cy="355.5" r="4.1"/>
	<circle class="st0" cx="46.8" cy="365.7" r="4.1"/>
	<circle class="st0" cx="5" cy="337.1" r="4.1"/>
	<circle class="st0" cx="7.1" cy="348.7" r="4.1"/>
	<circle class="st0" cx="27.1" cy="350.7" r="4.1"/>
	<circle class="st0" cx="18.1" cy="359.6" r="4.1"/>
	<circle class="st0" cx="31.2" cy="363.6" r="4.1"/>
	<line class="st1" x1="7.1" y1="348.7" x2="18.1" y2="359.6"/>
	<line class="st1" x1="19" y1="336.3" x2="27.1" y2="350.7"/>
	<line class="st1" x1="32.5" y1="337.1" x2="42.7" y2="345.3"/>
	<line class="st1" x1="7.1" y1="348.7" x2="27.1" y2="350.7"/>
	<line class="st1" x1="42.7" y1="345.3" x2="27.1" y2="350.7"/>
	<line class="st1" x1="39.6" y1="355.5" x2="27.1" y2="350.7"/>
	<line class="st1" x1="46.8" y1="365.7" x2="31.2" y2="363.6"/>
	<line class="st1" x1="27.1" y1="350.7" x2="31.2" y2="363.6"/>
</g>
<circle class="st0" cx="22.7" cy="15.2" r="4.1"/>
<circle class="st0" cx="35.3" cy="40.2" r="4.1"/>
<circle class="st0" cx="81.6" cy="22.7" r="4.1"/>
<circle class="st0" cx="57.4" cy="10.4" r="4.1"/>
<circle class="st0" cx="9.6" cy="4.1" r="4.1"/>
<circle class="st0" cx="22.7" cy="30.3" r="4.1"/>
<circle class="st0" cx="46.3" cy="22.7" r="4.1"/>
<circle class="st0" cx="4" cy="22.7" r="4.1"/>
<circle class="st0" cx="57.6" cy="35.1" r="4.1"/>
<line class="st2" x1="57.6" y1="35.1" x2="46.3" y2="22.7"/>
<line class="st3" x1="35.3" y1="40.2" x2="46.3" y2="22.7"/>
<line class="st2" x1="22.7" y1="15.2" x2="46.3" y2="22.7"/>
<line class="st2" x1="4" y1="22.7" x2="22.7" y2="15.2"/>
<line class="st2" x1="57.6" y1="35.1" x2="81.6" y2="22.7"/>
<line class="st2" x1="57.4" y1="10.4" x2="81.6" y2="22.7"/>
</svg>
